<mxfile host="app.diagrams.net" modified="2022-01-16T11:38:21.269Z" agent="5.0 (Macintosh; Intel Mac OS X 10_15_7) AppleWebKit/537.36 (KHTML, like Gecko) Chrome/96.0.4664.110 Safari/537.36" etag="fF1Aeki9j_Xz4JVwJtlB" version="16.1.0" type="github">
  <diagram id="9Zyv6VbhamUN_IVr_4fC" name="第 1 页">
    <mxGraphModel dx="772" dy="409" grid="1" gridSize="10" guides="1" tooltips="1" connect="1" arrows="1" fold="1" page="1" pageScale="1" pageWidth="827" pageHeight="1169" background="#ffffff" math="0" shadow="0">
      <root>
        <mxCell id="0" />
        <mxCell id="1" parent="0" />
        <mxCell id="PRHjL__YodaN7GC-Kpvh-1" value="" style="shape=waypoint;sketch=0;fillStyle=solid;size=6;pointerEvents=1;points=[];fillColor=#f8cecc;resizable=0;rotatable=0;perimeter=centerPerimeter;snapToPoint=1;strokeColor=#b85450;" vertex="1" parent="1">
          <mxGeometry x="260" y="260" width="40" height="40" as="geometry" />
        </mxCell>
        <mxCell id="PRHjL__YodaN7GC-Kpvh-2" value="" style="endArrow=classic;html=1;rounded=0;" edge="1" parent="1">
          <mxGeometry width="50" height="50" relative="1" as="geometry">
            <mxPoint x="240" y="440" as="sourcePoint" />
            <mxPoint x="520" y="440" as="targetPoint" />
          </mxGeometry>
        </mxCell>
        <mxCell id="PRHjL__YodaN7GC-Kpvh-3" value="" style="endArrow=classic;html=1;rounded=0;" edge="1" parent="1">
          <mxGeometry width="50" height="50" relative="1" as="geometry">
            <mxPoint x="240" y="440" as="sourcePoint" />
            <mxPoint x="240" y="160" as="targetPoint" />
          </mxGeometry>
        </mxCell>
        <mxCell id="PRHjL__YodaN7GC-Kpvh-5" value="" style="shape=waypoint;sketch=0;fillStyle=solid;size=6;pointerEvents=1;points=[];fillColor=#f8cecc;resizable=0;rotatable=0;perimeter=centerPerimeter;snapToPoint=1;strokeColor=#b85450;" vertex="1" parent="1">
          <mxGeometry x="300" y="220" width="40" height="40" as="geometry" />
        </mxCell>
        <mxCell id="PRHjL__YodaN7GC-Kpvh-7" value="" style="shape=waypoint;sketch=0;fillStyle=solid;size=6;pointerEvents=1;points=[];fillColor=#fff2cc;resizable=0;rotatable=0;perimeter=centerPerimeter;snapToPoint=1;strokeColor=#d6b656;" vertex="1" parent="1">
          <mxGeometry x="380" y="180" width="40" height="40" as="geometry" />
        </mxCell>
        <mxCell id="PRHjL__YodaN7GC-Kpvh-9" value="" style="shape=waypoint;sketch=0;fillStyle=solid;size=6;pointerEvents=1;points=[];fillColor=#fff2cc;resizable=0;rotatable=0;perimeter=centerPerimeter;snapToPoint=1;strokeColor=#d6b656;" vertex="1" parent="1">
          <mxGeometry x="460" y="380" width="40" height="40" as="geometry" />
        </mxCell>
        <mxCell id="PRHjL__YodaN7GC-Kpvh-10" value="" style="endArrow=none;html=1;rounded=0;endFill=0;fillColor=#f8cecc;strokeColor=#b85450;" edge="1" parent="1">
          <mxGeometry width="50" height="50" relative="1" as="geometry">
            <mxPoint x="280" y="280" as="sourcePoint" />
            <mxPoint x="320" y="240" as="targetPoint" />
          </mxGeometry>
        </mxCell>
        <mxCell id="PRHjL__YodaN7GC-Kpvh-11" value="" style="endArrow=none;html=1;rounded=0;endFill=0;fillColor=#f8cecc;strokeColor=#b85450;" edge="1" parent="1" source="PRHjL__YodaN7GC-Kpvh-5" target="PRHjL__YodaN7GC-Kpvh-6">
          <mxGeometry width="50" height="50" relative="1" as="geometry">
            <mxPoint x="330" y="270" as="sourcePoint" />
            <mxPoint x="380" y="220" as="targetPoint" />
          </mxGeometry>
        </mxCell>
        <mxCell id="PRHjL__YodaN7GC-Kpvh-12" value="" style="endArrow=none;html=1;rounded=0;entryX=0.5;entryY=0.425;entryDx=0;entryDy=0;entryPerimeter=0;endFill=0;fillColor=#f8cecc;strokeColor=#b85450;" edge="1" parent="1" target="PRHjL__YodaN7GC-Kpvh-7">
          <mxGeometry width="50" height="50" relative="1" as="geometry">
            <mxPoint x="360" y="360" as="sourcePoint" />
            <mxPoint x="410" y="310" as="targetPoint" />
          </mxGeometry>
        </mxCell>
        <mxCell id="PRHjL__YodaN7GC-Kpvh-13" value="" style="endArrow=none;html=1;rounded=0;endFill=0;fillColor=#fff2cc;strokeColor=#d6b656;" edge="1" parent="1" source="PRHjL__YodaN7GC-Kpvh-7" target="PRHjL__YodaN7GC-Kpvh-8">
          <mxGeometry width="50" height="50" relative="1" as="geometry">
            <mxPoint x="430" y="190" as="sourcePoint" />
            <mxPoint x="480" y="140" as="targetPoint" />
          </mxGeometry>
        </mxCell>
        <mxCell id="PRHjL__YodaN7GC-Kpvh-15" value="&lt;font face=&quot;Comic Sans MS&quot; style=&quot;font-size: 14px&quot;&gt;4&lt;/font&gt;" style="rounded=0;whiteSpace=wrap;html=1;fillColor=#f5f5f5;fontColor=#333333;strokeColor=#666666;shadow=1;" vertex="1" parent="1">
          <mxGeometry x="260" y="80" width="40" height="40" as="geometry" />
        </mxCell>
        <mxCell id="PRHjL__YodaN7GC-Kpvh-16" value="&lt;font face=&quot;Comic Sans MS&quot; style=&quot;font-size: 14px&quot;&gt;5&lt;/font&gt;" style="rounded=0;whiteSpace=wrap;html=1;fillColor=#f5f5f5;fontColor=#333333;strokeColor=#666666;shadow=1;" vertex="1" parent="1">
          <mxGeometry x="300" y="80" width="40" height="40" as="geometry" />
        </mxCell>
        <mxCell id="PRHjL__YodaN7GC-Kpvh-17" value="&lt;font face=&quot;Comic Sans MS&quot; style=&quot;font-size: 14px&quot;&gt;2&lt;/font&gt;" style="rounded=0;whiteSpace=wrap;html=1;fillColor=#f5f5f5;fontColor=#333333;strokeColor=#666666;shadow=1;" vertex="1" parent="1">
          <mxGeometry x="340" y="80" width="40" height="40" as="geometry" />
        </mxCell>
        <mxCell id="PRHjL__YodaN7GC-Kpvh-18" value="&lt;font face=&quot;Comic Sans MS&quot; style=&quot;font-size: 14px&quot;&gt;6&lt;/font&gt;" style="rounded=0;whiteSpace=wrap;html=1;fillColor=#f5f5f5;fontColor=#333333;strokeColor=#666666;shadow=1;" vertex="1" parent="1">
          <mxGeometry x="380" y="80" width="40" height="40" as="geometry" />
        </mxCell>
        <mxCell id="PRHjL__YodaN7GC-Kpvh-19" value="&lt;font face=&quot;Comic Sans MS&quot; style=&quot;font-size: 14px&quot;&gt;3&lt;/font&gt;" style="rounded=0;whiteSpace=wrap;html=1;fillColor=#f5f5f5;fontColor=#333333;strokeColor=#666666;shadow=1;" vertex="1" parent="1">
          <mxGeometry x="420" y="80" width="40" height="40" as="geometry" />
        </mxCell>
        <mxCell id="PRHjL__YodaN7GC-Kpvh-20" value="&lt;font face=&quot;Comic Sans MS&quot; style=&quot;font-size: 14px&quot;&gt;1&lt;/font&gt;" style="rounded=0;whiteSpace=wrap;html=1;fillColor=#f5f5f5;fontColor=#333333;strokeColor=#666666;shadow=1;" vertex="1" parent="1">
          <mxGeometry x="460" y="80" width="40" height="40" as="geometry" />
        </mxCell>
        <mxCell id="PRHjL__YodaN7GC-Kpvh-22" value="0" style="text;html=1;strokeColor=none;fillColor=none;align=center;verticalAlign=middle;whiteSpace=wrap;rounded=0;shadow=1;fontFamily=Comic Sans MS;fontSize=14;" vertex="1" parent="1">
          <mxGeometry x="260" y="440" width="40" height="40" as="geometry" />
        </mxCell>
        <mxCell id="PRHjL__YodaN7GC-Kpvh-23" value="1" style="text;html=1;strokeColor=none;fillColor=none;align=center;verticalAlign=middle;whiteSpace=wrap;rounded=0;shadow=1;fontFamily=Comic Sans MS;fontSize=14;" vertex="1" parent="1">
          <mxGeometry x="300" y="440" width="40" height="40" as="geometry" />
        </mxCell>
        <mxCell id="PRHjL__YodaN7GC-Kpvh-24" value="2" style="text;html=1;strokeColor=none;fillColor=none;align=center;verticalAlign=middle;whiteSpace=wrap;rounded=0;shadow=1;fontFamily=Comic Sans MS;fontSize=14;" vertex="1" parent="1">
          <mxGeometry x="340" y="440" width="40" height="40" as="geometry" />
        </mxCell>
        <mxCell id="PRHjL__YodaN7GC-Kpvh-25" value="3" style="text;html=1;strokeColor=none;fillColor=none;align=center;verticalAlign=middle;whiteSpace=wrap;rounded=0;shadow=1;fontFamily=Comic Sans MS;fontSize=14;" vertex="1" parent="1">
          <mxGeometry x="380" y="440" width="40" height="40" as="geometry" />
        </mxCell>
        <mxCell id="PRHjL__YodaN7GC-Kpvh-26" value="4" style="text;html=1;strokeColor=none;fillColor=none;align=center;verticalAlign=middle;whiteSpace=wrap;rounded=0;shadow=1;fontFamily=Comic Sans MS;fontSize=14;" vertex="1" parent="1">
          <mxGeometry x="420" y="440" width="40" height="40" as="geometry" />
        </mxCell>
        <mxCell id="PRHjL__YodaN7GC-Kpvh-27" value="5" style="text;html=1;strokeColor=none;fillColor=none;align=center;verticalAlign=middle;whiteSpace=wrap;rounded=0;shadow=1;fontFamily=Comic Sans MS;fontSize=14;" vertex="1" parent="1">
          <mxGeometry x="460" y="440" width="40" height="40" as="geometry" />
        </mxCell>
        <mxCell id="PRHjL__YodaN7GC-Kpvh-28" value="1" style="text;html=1;strokeColor=none;fillColor=none;align=center;verticalAlign=middle;whiteSpace=wrap;rounded=0;shadow=1;fontFamily=Comic Sans MS;fontSize=14;" vertex="1" parent="1">
          <mxGeometry x="200" y="380" width="40" height="40" as="geometry" />
        </mxCell>
        <mxCell id="PRHjL__YodaN7GC-Kpvh-29" value="2" style="text;html=1;strokeColor=none;fillColor=none;align=center;verticalAlign=middle;whiteSpace=wrap;rounded=0;shadow=1;fontFamily=Comic Sans MS;fontSize=14;" vertex="1" parent="1">
          <mxGeometry x="200" y="340" width="40" height="40" as="geometry" />
        </mxCell>
        <mxCell id="PRHjL__YodaN7GC-Kpvh-30" value="3" style="text;html=1;strokeColor=none;fillColor=none;align=center;verticalAlign=middle;whiteSpace=wrap;rounded=0;shadow=1;fontFamily=Comic Sans MS;fontSize=14;" vertex="1" parent="1">
          <mxGeometry x="200" y="300" width="40" height="40" as="geometry" />
        </mxCell>
        <mxCell id="PRHjL__YodaN7GC-Kpvh-31" value="4" style="text;html=1;strokeColor=none;fillColor=none;align=center;verticalAlign=middle;whiteSpace=wrap;rounded=0;shadow=1;fontFamily=Comic Sans MS;fontSize=14;" vertex="1" parent="1">
          <mxGeometry x="200" y="260" width="40" height="40" as="geometry" />
        </mxCell>
        <mxCell id="PRHjL__YodaN7GC-Kpvh-32" value="5" style="text;html=1;strokeColor=none;fillColor=none;align=center;verticalAlign=middle;whiteSpace=wrap;rounded=0;shadow=1;fontFamily=Comic Sans MS;fontSize=14;" vertex="1" parent="1">
          <mxGeometry x="200" y="220" width="40" height="40" as="geometry" />
        </mxCell>
        <mxCell id="PRHjL__YodaN7GC-Kpvh-33" value="6" style="text;html=1;strokeColor=none;fillColor=none;align=center;verticalAlign=middle;whiteSpace=wrap;rounded=0;shadow=1;fontFamily=Comic Sans MS;fontSize=14;" vertex="1" parent="1">
          <mxGeometry x="200" y="180" width="40" height="40" as="geometry" />
        </mxCell>
        <mxCell id="PRHjL__YodaN7GC-Kpvh-35" value="" style="line;strokeWidth=1;html=1;shadow=0;fontFamily=Comic Sans MS;fontSize=14;dashed=1;fillColor=#dae8fc;strokeColor=#6c8ebf;" vertex="1" parent="1">
          <mxGeometry x="330" y="160" width="170" height="10" as="geometry" />
        </mxCell>
        <mxCell id="PRHjL__YodaN7GC-Kpvh-36" value="" style="line;strokeWidth=1;html=1;shadow=0;fontFamily=Comic Sans MS;fontSize=14;rotation=90;dashed=1;fillColor=#dae8fc;strokeColor=#6c8ebf;" vertex="1" parent="1">
          <mxGeometry x="375" y="285" width="250" height="10" as="geometry" />
        </mxCell>
        <mxCell id="PRHjL__YodaN7GC-Kpvh-37" value="" style="line;strokeWidth=1;html=1;shadow=0;fontFamily=Comic Sans MS;fontSize=14;dashed=1;fillColor=#dae8fc;strokeColor=#6c8ebf;" vertex="1" parent="1">
          <mxGeometry x="330" y="410" width="170" height="10" as="geometry" />
        </mxCell>
        <mxCell id="PRHjL__YodaN7GC-Kpvh-38" value="" style="line;strokeWidth=1;html=1;shadow=0;fontFamily=Comic Sans MS;fontSize=14;rotation=90;dashed=1;fillColor=#dae8fc;strokeColor=#6c8ebf;" vertex="1" parent="1">
          <mxGeometry x="206" y="285" width="250" height="10" as="geometry" />
        </mxCell>
        <mxCell id="PRHjL__YodaN7GC-Kpvh-41" value="&lt;font style=&quot;font-size: 12px&quot;&gt;PointA&lt;/font&gt;" style="text;html=1;strokeColor=#82b366;fillColor=#d5e8d4;align=center;verticalAlign=middle;whiteSpace=wrap;rounded=0;shadow=0;dashed=1;fontFamily=Comic Sans MS;fontSize=14;" vertex="1" parent="1">
          <mxGeometry x="373" y="340" width="40" height="20" as="geometry" />
        </mxCell>
        <mxCell id="PRHjL__YodaN7GC-Kpvh-42" value="&lt;font style=&quot;font-size: 12px&quot;&gt;PointB&lt;/font&gt;" style="text;html=1;strokeColor=#6c8ebf;fillColor=#dae8fc;align=center;verticalAlign=middle;whiteSpace=wrap;rounded=0;shadow=0;dashed=1;fontFamily=Comic Sans MS;fontSize=14;" vertex="1" parent="1">
          <mxGeometry x="450" y="310" width="40" height="20" as="geometry" />
        </mxCell>
        <mxCell id="PRHjL__YodaN7GC-Kpvh-43" value="" style="shape=waypoint;sketch=0;fillStyle=solid;size=6;pointerEvents=1;points=[];fillColor=#f8cecc;resizable=0;rotatable=0;perimeter=centerPerimeter;snapToPoint=1;strokeColor=#b85450;" vertex="1" parent="1">
          <mxGeometry x="660" y="260" width="40" height="40" as="geometry" />
        </mxCell>
        <mxCell id="PRHjL__YodaN7GC-Kpvh-44" value="" style="endArrow=classic;html=1;rounded=0;" edge="1" parent="1">
          <mxGeometry width="50" height="50" relative="1" as="geometry">
            <mxPoint x="640" y="440" as="sourcePoint" />
            <mxPoint x="920" y="440" as="targetPoint" />
          </mxGeometry>
        </mxCell>
        <mxCell id="PRHjL__YodaN7GC-Kpvh-45" value="" style="endArrow=classic;html=1;rounded=0;" edge="1" parent="1">
          <mxGeometry width="50" height="50" relative="1" as="geometry">
            <mxPoint x="640" y="440" as="sourcePoint" />
            <mxPoint x="640" y="160" as="targetPoint" />
          </mxGeometry>
        </mxCell>
        <mxCell id="PRHjL__YodaN7GC-Kpvh-46" value="" style="shape=waypoint;sketch=0;fillStyle=solid;size=6;pointerEvents=1;points=[];fillColor=#f8cecc;resizable=0;rotatable=0;perimeter=centerPerimeter;snapToPoint=1;strokeColor=#b85450;" vertex="1" parent="1">
          <mxGeometry x="700" y="220" width="40" height="40" as="geometry" />
        </mxCell>
        <mxCell id="PRHjL__YodaN7GC-Kpvh-48" value="" style="shape=waypoint;sketch=0;fillStyle=solid;size=6;pointerEvents=1;points=[];fillColor=#f8cecc;resizable=0;rotatable=0;perimeter=centerPerimeter;snapToPoint=1;strokeColor=#b85450;" vertex="1" parent="1">
          <mxGeometry x="780" y="180" width="40" height="40" as="geometry" />
        </mxCell>
        <mxCell id="PRHjL__YodaN7GC-Kpvh-50" value="" style="shape=waypoint;sketch=0;fillStyle=solid;size=6;pointerEvents=1;points=[];fillColor=#f8cecc;resizable=0;rotatable=0;perimeter=centerPerimeter;snapToPoint=1;strokeColor=#b85450;" vertex="1" parent="1">
          <mxGeometry x="860" y="380" width="40" height="40" as="geometry" />
        </mxCell>
        <mxCell id="PRHjL__YodaN7GC-Kpvh-51" value="" style="endArrow=none;html=1;rounded=0;endFill=0;fillColor=#f8cecc;strokeColor=#b85450;" edge="1" parent="1">
          <mxGeometry width="50" height="50" relative="1" as="geometry">
            <mxPoint x="680" y="280" as="sourcePoint" />
            <mxPoint x="720" y="240" as="targetPoint" />
          </mxGeometry>
        </mxCell>
        <mxCell id="PRHjL__YodaN7GC-Kpvh-53" value="" style="endArrow=none;html=1;rounded=0;entryX=0.5;entryY=0.425;entryDx=0;entryDy=0;entryPerimeter=0;endFill=0;fillColor=#fff2cc;strokeColor=#d6b656;startArrow=none;" edge="1" parent="1" target="PRHjL__YodaN7GC-Kpvh-48" source="PRHjL__YodaN7GC-Kpvh-47">
          <mxGeometry width="50" height="50" relative="1" as="geometry">
            <mxPoint x="840" y="360" as="sourcePoint" />
            <mxPoint x="810" y="310" as="targetPoint" />
          </mxGeometry>
        </mxCell>
        <mxCell id="PRHjL__YodaN7GC-Kpvh-54" value="" style="endArrow=none;html=1;rounded=0;endFill=0;fillColor=#f8cecc;strokeColor=#b85450;" edge="1" parent="1" source="PRHjL__YodaN7GC-Kpvh-48" target="PRHjL__YodaN7GC-Kpvh-49">
          <mxGeometry width="50" height="50" relative="1" as="geometry">
            <mxPoint x="830" y="190" as="sourcePoint" />
            <mxPoint x="880" y="140" as="targetPoint" />
          </mxGeometry>
        </mxCell>
        <mxCell id="PRHjL__YodaN7GC-Kpvh-55" value="" style="endArrow=none;html=1;rounded=0;entryX=0.625;entryY=0.425;entryDx=0;entryDy=0;entryPerimeter=0;endFill=0;fillColor=#fff2cc;strokeColor=#d6b656;startArrow=none;" edge="1" parent="1" target="PRHjL__YodaN7GC-Kpvh-50">
          <mxGeometry width="50" height="50" relative="1" as="geometry">
            <mxPoint x="840" y="360" as="sourcePoint" />
            <mxPoint x="890" y="270" as="targetPoint" />
          </mxGeometry>
        </mxCell>
        <mxCell id="PRHjL__YodaN7GC-Kpvh-56" value="0" style="text;html=1;strokeColor=none;fillColor=none;align=center;verticalAlign=middle;whiteSpace=wrap;rounded=0;shadow=1;fontFamily=Comic Sans MS;fontSize=14;" vertex="1" parent="1">
          <mxGeometry x="660" y="440" width="40" height="40" as="geometry" />
        </mxCell>
        <mxCell id="PRHjL__YodaN7GC-Kpvh-57" value="1" style="text;html=1;strokeColor=none;fillColor=none;align=center;verticalAlign=middle;whiteSpace=wrap;rounded=0;shadow=1;fontFamily=Comic Sans MS;fontSize=14;" vertex="1" parent="1">
          <mxGeometry x="700" y="440" width="40" height="40" as="geometry" />
        </mxCell>
        <mxCell id="PRHjL__YodaN7GC-Kpvh-58" value="2" style="text;html=1;strokeColor=none;fillColor=none;align=center;verticalAlign=middle;whiteSpace=wrap;rounded=0;shadow=1;fontFamily=Comic Sans MS;fontSize=14;" vertex="1" parent="1">
          <mxGeometry x="740" y="440" width="40" height="40" as="geometry" />
        </mxCell>
        <mxCell id="PRHjL__YodaN7GC-Kpvh-59" value="3" style="text;html=1;strokeColor=none;fillColor=none;align=center;verticalAlign=middle;whiteSpace=wrap;rounded=0;shadow=1;fontFamily=Comic Sans MS;fontSize=14;" vertex="1" parent="1">
          <mxGeometry x="780" y="440" width="40" height="40" as="geometry" />
        </mxCell>
        <mxCell id="PRHjL__YodaN7GC-Kpvh-60" value="4" style="text;html=1;strokeColor=none;fillColor=none;align=center;verticalAlign=middle;whiteSpace=wrap;rounded=0;shadow=1;fontFamily=Comic Sans MS;fontSize=14;" vertex="1" parent="1">
          <mxGeometry x="820" y="440" width="40" height="40" as="geometry" />
        </mxCell>
        <mxCell id="PRHjL__YodaN7GC-Kpvh-61" value="5" style="text;html=1;strokeColor=none;fillColor=none;align=center;verticalAlign=middle;whiteSpace=wrap;rounded=0;shadow=1;fontFamily=Comic Sans MS;fontSize=14;" vertex="1" parent="1">
          <mxGeometry x="860" y="440" width="40" height="40" as="geometry" />
        </mxCell>
        <mxCell id="PRHjL__YodaN7GC-Kpvh-62" value="1" style="text;html=1;strokeColor=none;fillColor=none;align=center;verticalAlign=middle;whiteSpace=wrap;rounded=0;shadow=1;fontFamily=Comic Sans MS;fontSize=14;" vertex="1" parent="1">
          <mxGeometry x="600" y="380" width="40" height="40" as="geometry" />
        </mxCell>
        <mxCell id="PRHjL__YodaN7GC-Kpvh-63" value="2" style="text;html=1;strokeColor=none;fillColor=none;align=center;verticalAlign=middle;whiteSpace=wrap;rounded=0;shadow=1;fontFamily=Comic Sans MS;fontSize=14;" vertex="1" parent="1">
          <mxGeometry x="600" y="340" width="40" height="40" as="geometry" />
        </mxCell>
        <mxCell id="PRHjL__YodaN7GC-Kpvh-64" value="3" style="text;html=1;strokeColor=none;fillColor=none;align=center;verticalAlign=middle;whiteSpace=wrap;rounded=0;shadow=1;fontFamily=Comic Sans MS;fontSize=14;" vertex="1" parent="1">
          <mxGeometry x="600" y="300" width="40" height="40" as="geometry" />
        </mxCell>
        <mxCell id="PRHjL__YodaN7GC-Kpvh-65" value="4" style="text;html=1;strokeColor=none;fillColor=none;align=center;verticalAlign=middle;whiteSpace=wrap;rounded=0;shadow=1;fontFamily=Comic Sans MS;fontSize=14;" vertex="1" parent="1">
          <mxGeometry x="600" y="260" width="40" height="40" as="geometry" />
        </mxCell>
        <mxCell id="PRHjL__YodaN7GC-Kpvh-66" value="5" style="text;html=1;strokeColor=none;fillColor=none;align=center;verticalAlign=middle;whiteSpace=wrap;rounded=0;shadow=1;fontFamily=Comic Sans MS;fontSize=14;" vertex="1" parent="1">
          <mxGeometry x="600" y="220" width="40" height="40" as="geometry" />
        </mxCell>
        <mxCell id="PRHjL__YodaN7GC-Kpvh-67" value="6" style="text;html=1;strokeColor=none;fillColor=none;align=center;verticalAlign=middle;whiteSpace=wrap;rounded=0;shadow=1;fontFamily=Comic Sans MS;fontSize=14;" vertex="1" parent="1">
          <mxGeometry x="600" y="180" width="40" height="40" as="geometry" />
        </mxCell>
        <mxCell id="PRHjL__YodaN7GC-Kpvh-72" value="&lt;font style=&quot;font-size: 12px&quot;&gt;PointA&lt;/font&gt;" style="text;html=1;strokeColor=#82b366;fillColor=#d5e8d4;align=center;verticalAlign=middle;whiteSpace=wrap;rounded=0;shadow=0;dashed=1;fontFamily=Comic Sans MS;fontSize=14;" vertex="1" parent="1">
          <mxGeometry x="850" y="340" width="40" height="20" as="geometry" />
        </mxCell>
        <mxCell id="PRHjL__YodaN7GC-Kpvh-73" value="&lt;font style=&quot;font-size: 12px&quot;&gt;PointB&lt;/font&gt;" style="text;html=1;strokeColor=#6c8ebf;fillColor=#dae8fc;align=center;verticalAlign=middle;whiteSpace=wrap;rounded=0;shadow=0;dashed=1;fontFamily=Comic Sans MS;fontSize=14;" vertex="1" parent="1">
          <mxGeometry x="740" y="330" width="40" height="20" as="geometry" />
        </mxCell>
        <mxCell id="PRHjL__YodaN7GC-Kpvh-74" value="" style="endArrow=none;html=1;rounded=0;entryDx=0;entryDy=0;entryPerimeter=0;endFill=0;fillColor=#f8cecc;strokeColor=#b85450;" edge="1" parent="1" target="PRHjL__YodaN7GC-Kpvh-49">
          <mxGeometry width="50" height="50" relative="1" as="geometry">
            <mxPoint x="760" y="320" as="sourcePoint" />
            <mxPoint x="880" y="400" as="targetPoint" />
          </mxGeometry>
        </mxCell>
        <mxCell id="PRHjL__YodaN7GC-Kpvh-75" value="" style="endArrow=none;html=1;rounded=0;fontFamily=Comic Sans MS;fontSize=12;endFill=0;fillColor=#f8cecc;strokeColor=#b85450;" edge="1" parent="1" target="PRHjL__YodaN7GC-Kpvh-49">
          <mxGeometry width="50" height="50" relative="1" as="geometry">
            <mxPoint x="720" y="240" as="sourcePoint" />
            <mxPoint x="770" y="190" as="targetPoint" />
          </mxGeometry>
        </mxCell>
        <mxCell id="PRHjL__YodaN7GC-Kpvh-76" value="" style="endArrow=none;html=1;rounded=0;entryDx=0;entryDy=0;entryPerimeter=0;endFill=0;fillColor=#f8cecc;strokeColor=#b85450;" edge="1" parent="1" target="PRHjL__YodaN7GC-Kpvh-47">
          <mxGeometry width="50" height="50" relative="1" as="geometry">
            <mxPoint x="840" y="360" as="sourcePoint" />
            <mxPoint x="800" y="200" as="targetPoint" />
          </mxGeometry>
        </mxCell>
        <mxCell id="PRHjL__YodaN7GC-Kpvh-77" value="" style="shape=waypoint;sketch=0;fillStyle=solid;size=6;pointerEvents=1;points=[];fillColor=#f8cecc;resizable=0;rotatable=0;perimeter=centerPerimeter;snapToPoint=1;strokeColor=#b85450;" vertex="1" parent="1">
          <mxGeometry x="660" y="700" width="40" height="40" as="geometry" />
        </mxCell>
        <mxCell id="PRHjL__YodaN7GC-Kpvh-78" value="" style="endArrow=classic;html=1;rounded=0;" edge="1" parent="1">
          <mxGeometry width="50" height="50" relative="1" as="geometry">
            <mxPoint x="640" y="880" as="sourcePoint" />
            <mxPoint x="920" y="880" as="targetPoint" />
          </mxGeometry>
        </mxCell>
        <mxCell id="PRHjL__YodaN7GC-Kpvh-79" value="" style="endArrow=classic;html=1;rounded=0;" edge="1" parent="1">
          <mxGeometry width="50" height="50" relative="1" as="geometry">
            <mxPoint x="640" y="880" as="sourcePoint" />
            <mxPoint x="640" y="600" as="targetPoint" />
          </mxGeometry>
        </mxCell>
        <mxCell id="PRHjL__YodaN7GC-Kpvh-80" value="" style="shape=waypoint;sketch=0;fillStyle=solid;size=6;pointerEvents=1;points=[];fillColor=#f8cecc;resizable=0;rotatable=0;perimeter=centerPerimeter;snapToPoint=1;strokeColor=#b85450;" vertex="1" parent="1">
          <mxGeometry x="700" y="660" width="40" height="40" as="geometry" />
        </mxCell>
        <mxCell id="PRHjL__YodaN7GC-Kpvh-81" value="" style="shape=waypoint;sketch=0;fillStyle=solid;size=6;pointerEvents=1;points=[];fillColor=#f8cecc;resizable=0;rotatable=0;perimeter=centerPerimeter;snapToPoint=1;strokeColor=#b85450;" vertex="1" parent="1">
          <mxGeometry x="860" y="620" width="40" height="40" as="geometry" />
        </mxCell>
        <mxCell id="PRHjL__YodaN7GC-Kpvh-82" value="" style="shape=waypoint;sketch=0;fillStyle=solid;size=6;pointerEvents=1;points=[];fillColor=#f8cecc;resizable=0;rotatable=0;perimeter=centerPerimeter;snapToPoint=1;strokeColor=#b85450;" vertex="1" parent="1">
          <mxGeometry x="780" y="820" width="40" height="40" as="geometry" />
        </mxCell>
        <mxCell id="PRHjL__YodaN7GC-Kpvh-83" value="" style="endArrow=none;html=1;rounded=0;endFill=0;fillColor=#f8cecc;strokeColor=#b85450;" edge="1" parent="1">
          <mxGeometry width="50" height="50" relative="1" as="geometry">
            <mxPoint x="680" y="720" as="sourcePoint" />
            <mxPoint x="720" y="680" as="targetPoint" />
          </mxGeometry>
        </mxCell>
        <mxCell id="PRHjL__YodaN7GC-Kpvh-84" value="" style="endArrow=none;html=1;rounded=0;entryX=0.5;entryY=0.425;entryDx=0;entryDy=0;entryPerimeter=0;endFill=0;fillColor=#f8cecc;strokeColor=#b85450;startArrow=none;" edge="1" parent="1" source="PRHjL__YodaN7GC-Kpvh-108" target="PRHjL__YodaN7GC-Kpvh-81">
          <mxGeometry width="50" height="50" relative="1" as="geometry">
            <mxPoint x="840" y="800" as="sourcePoint" />
            <mxPoint x="810" y="750" as="targetPoint" />
          </mxGeometry>
        </mxCell>
        <mxCell id="PRHjL__YodaN7GC-Kpvh-85" value="" style="endArrow=none;html=1;rounded=0;endFill=0;fillColor=#f8cecc;strokeColor=#b85450;exitX=0.515;exitY=0.423;exitDx=0;exitDy=0;exitPerimeter=0;" edge="1" parent="1" source="PRHjL__YodaN7GC-Kpvh-82" target="PRHjL__YodaN7GC-Kpvh-105">
          <mxGeometry width="50" height="50" relative="1" as="geometry">
            <mxPoint x="830" y="630" as="sourcePoint" />
            <mxPoint x="880" y="580" as="targetPoint" />
          </mxGeometry>
        </mxCell>
        <mxCell id="PRHjL__YodaN7GC-Kpvh-86" value="" style="endArrow=none;html=1;rounded=0;endFill=0;fillColor=#f8cecc;strokeColor=#b85450;startArrow=none;" edge="1" parent="1">
          <mxGeometry width="50" height="50" relative="1" as="geometry">
            <mxPoint x="840" y="800" as="sourcePoint" />
            <mxPoint x="800" y="840" as="targetPoint" />
          </mxGeometry>
        </mxCell>
        <mxCell id="PRHjL__YodaN7GC-Kpvh-87" value="0" style="text;html=1;strokeColor=none;fillColor=none;align=center;verticalAlign=middle;whiteSpace=wrap;rounded=0;shadow=1;fontFamily=Comic Sans MS;fontSize=14;" vertex="1" parent="1">
          <mxGeometry x="660" y="880" width="40" height="40" as="geometry" />
        </mxCell>
        <mxCell id="PRHjL__YodaN7GC-Kpvh-88" value="1" style="text;html=1;strokeColor=none;fillColor=none;align=center;verticalAlign=middle;whiteSpace=wrap;rounded=0;shadow=1;fontFamily=Comic Sans MS;fontSize=14;" vertex="1" parent="1">
          <mxGeometry x="700" y="880" width="40" height="40" as="geometry" />
        </mxCell>
        <mxCell id="PRHjL__YodaN7GC-Kpvh-89" value="2" style="text;html=1;strokeColor=none;fillColor=none;align=center;verticalAlign=middle;whiteSpace=wrap;rounded=0;shadow=1;fontFamily=Comic Sans MS;fontSize=14;" vertex="1" parent="1">
          <mxGeometry x="740" y="880" width="40" height="40" as="geometry" />
        </mxCell>
        <mxCell id="PRHjL__YodaN7GC-Kpvh-90" value="3" style="text;html=1;strokeColor=none;fillColor=none;align=center;verticalAlign=middle;whiteSpace=wrap;rounded=0;shadow=1;fontFamily=Comic Sans MS;fontSize=14;" vertex="1" parent="1">
          <mxGeometry x="780" y="880" width="40" height="40" as="geometry" />
        </mxCell>
        <mxCell id="PRHjL__YodaN7GC-Kpvh-91" value="4" style="text;html=1;strokeColor=none;fillColor=none;align=center;verticalAlign=middle;whiteSpace=wrap;rounded=0;shadow=1;fontFamily=Comic Sans MS;fontSize=14;" vertex="1" parent="1">
          <mxGeometry x="820" y="880" width="40" height="40" as="geometry" />
        </mxCell>
        <mxCell id="PRHjL__YodaN7GC-Kpvh-92" value="5" style="text;html=1;strokeColor=none;fillColor=none;align=center;verticalAlign=middle;whiteSpace=wrap;rounded=0;shadow=1;fontFamily=Comic Sans MS;fontSize=14;" vertex="1" parent="1">
          <mxGeometry x="860" y="880" width="40" height="40" as="geometry" />
        </mxCell>
        <mxCell id="PRHjL__YodaN7GC-Kpvh-93" value="1" style="text;html=1;strokeColor=none;fillColor=none;align=center;verticalAlign=middle;whiteSpace=wrap;rounded=0;shadow=1;fontFamily=Comic Sans MS;fontSize=14;" vertex="1" parent="1">
          <mxGeometry x="600" y="820" width="40" height="40" as="geometry" />
        </mxCell>
        <mxCell id="PRHjL__YodaN7GC-Kpvh-94" value="2" style="text;html=1;strokeColor=none;fillColor=none;align=center;verticalAlign=middle;whiteSpace=wrap;rounded=0;shadow=1;fontFamily=Comic Sans MS;fontSize=14;" vertex="1" parent="1">
          <mxGeometry x="600" y="780" width="40" height="40" as="geometry" />
        </mxCell>
        <mxCell id="PRHjL__YodaN7GC-Kpvh-95" value="3" style="text;html=1;strokeColor=none;fillColor=none;align=center;verticalAlign=middle;whiteSpace=wrap;rounded=0;shadow=1;fontFamily=Comic Sans MS;fontSize=14;" vertex="1" parent="1">
          <mxGeometry x="600" y="740" width="40" height="40" as="geometry" />
        </mxCell>
        <mxCell id="PRHjL__YodaN7GC-Kpvh-96" value="4" style="text;html=1;strokeColor=none;fillColor=none;align=center;verticalAlign=middle;whiteSpace=wrap;rounded=0;shadow=1;fontFamily=Comic Sans MS;fontSize=14;" vertex="1" parent="1">
          <mxGeometry x="600" y="700" width="40" height="40" as="geometry" />
        </mxCell>
        <mxCell id="PRHjL__YodaN7GC-Kpvh-97" value="5" style="text;html=1;strokeColor=none;fillColor=none;align=center;verticalAlign=middle;whiteSpace=wrap;rounded=0;shadow=1;fontFamily=Comic Sans MS;fontSize=14;" vertex="1" parent="1">
          <mxGeometry x="600" y="660" width="40" height="40" as="geometry" />
        </mxCell>
        <mxCell id="PRHjL__YodaN7GC-Kpvh-98" value="6" style="text;html=1;strokeColor=none;fillColor=none;align=center;verticalAlign=middle;whiteSpace=wrap;rounded=0;shadow=1;fontFamily=Comic Sans MS;fontSize=14;" vertex="1" parent="1">
          <mxGeometry x="600" y="620" width="40" height="40" as="geometry" />
        </mxCell>
        <mxCell id="PRHjL__YodaN7GC-Kpvh-103" value="&lt;font style=&quot;font-size: 12px&quot;&gt;PointA&lt;/font&gt;" style="text;html=1;strokeColor=#82b366;fillColor=#d5e8d4;align=center;verticalAlign=middle;whiteSpace=wrap;rounded=0;shadow=0;dashed=1;fontFamily=Comic Sans MS;fontSize=14;" vertex="1" parent="1">
          <mxGeometry x="850" y="790" width="40" height="20" as="geometry" />
        </mxCell>
        <mxCell id="PRHjL__YodaN7GC-Kpvh-104" value="&lt;font style=&quot;font-size: 12px&quot;&gt;PointB&lt;/font&gt;" style="text;html=1;strokeColor=#6c8ebf;fillColor=#dae8fc;align=center;verticalAlign=middle;whiteSpace=wrap;rounded=0;shadow=0;dashed=1;fontFamily=Comic Sans MS;fontSize=14;" vertex="1" parent="1">
          <mxGeometry x="770" y="750" width="40" height="20" as="geometry" />
        </mxCell>
        <mxCell id="PRHjL__YodaN7GC-Kpvh-106" value="" style="endArrow=none;html=1;rounded=0;entryDx=0;entryDy=0;entryPerimeter=0;endFill=0;fillColor=#f8cecc;strokeColor=#b85450;" edge="1" parent="1" target="PRHjL__YodaN7GC-Kpvh-105">
          <mxGeometry width="50" height="50" relative="1" as="geometry">
            <mxPoint x="760" y="760" as="sourcePoint" />
            <mxPoint x="880" y="840" as="targetPoint" />
          </mxGeometry>
        </mxCell>
        <mxCell id="PRHjL__YodaN7GC-Kpvh-107" value="" style="endArrow=none;html=1;rounded=0;fontFamily=Comic Sans MS;fontSize=12;endFill=0;fillColor=#f8cecc;strokeColor=#b85450;" edge="1" parent="1" target="PRHjL__YodaN7GC-Kpvh-105">
          <mxGeometry width="50" height="50" relative="1" as="geometry">
            <mxPoint x="720" y="680" as="sourcePoint" />
            <mxPoint x="770" y="630" as="targetPoint" />
          </mxGeometry>
        </mxCell>
        <mxCell id="PRHjL__YodaN7GC-Kpvh-108" value="" style="shape=waypoint;sketch=0;fillStyle=solid;size=6;pointerEvents=1;points=[];fillColor=#dae8fc;resizable=0;rotatable=0;perimeter=centerPerimeter;snapToPoint=1;strokeColor=#6c8ebf;" vertex="1" parent="1">
          <mxGeometry x="820" y="780" width="40" height="40" as="geometry" />
        </mxCell>
        <mxCell id="PRHjL__YodaN7GC-Kpvh-109" value="" style="endArrow=none;html=1;rounded=0;entryDx=0;entryDy=0;entryPerimeter=0;endFill=0;fillColor=#f8cecc;strokeColor=#b85450;" edge="1" parent="1" target="PRHjL__YodaN7GC-Kpvh-108">
          <mxGeometry width="50" height="50" relative="1" as="geometry">
            <mxPoint x="840" y="800" as="sourcePoint" />
            <mxPoint x="800" y="640" as="targetPoint" />
          </mxGeometry>
        </mxCell>
        <mxCell id="PRHjL__YodaN7GC-Kpvh-6" value="" style="shape=waypoint;sketch=0;fillStyle=solid;size=6;pointerEvents=1;points=[];fillColor=#d5e8d4;resizable=0;rotatable=0;perimeter=centerPerimeter;snapToPoint=1;strokeColor=#82b366;" vertex="1" parent="1">
          <mxGeometry x="340" y="340" width="40" height="40" as="geometry" />
        </mxCell>
        <mxCell id="PRHjL__YodaN7GC-Kpvh-14" value="" style="endArrow=none;html=1;rounded=0;entryX=0.625;entryY=0.425;entryDx=0;entryDy=0;entryPerimeter=0;endFill=0;fillColor=#fff2cc;strokeColor=#d6b656;" edge="1" parent="1" target="PRHjL__YodaN7GC-Kpvh-9">
          <mxGeometry width="50" height="50" relative="1" as="geometry">
            <mxPoint x="440" y="320" as="sourcePoint" />
            <mxPoint x="490" y="270" as="targetPoint" />
          </mxGeometry>
        </mxCell>
        <mxCell id="PRHjL__YodaN7GC-Kpvh-8" value="" style="shape=waypoint;sketch=0;fillStyle=solid;size=6;pointerEvents=1;points=[];fillColor=#dae8fc;resizable=0;rotatable=0;perimeter=centerPerimeter;snapToPoint=1;strokeColor=#6c8ebf;" vertex="1" parent="1">
          <mxGeometry x="420" y="300" width="40" height="40" as="geometry" />
        </mxCell>
        <mxCell id="PRHjL__YodaN7GC-Kpvh-49" value="" style="shape=waypoint;sketch=0;fillStyle=solid;size=6;pointerEvents=1;points=[];fillColor=#dae8fc;resizable=0;rotatable=0;perimeter=centerPerimeter;snapToPoint=1;strokeColor=#6c8ebf;" vertex="1" parent="1">
          <mxGeometry x="740" y="300" width="40" height="40" as="geometry" />
        </mxCell>
        <mxCell id="PRHjL__YodaN7GC-Kpvh-47" value="" style="shape=waypoint;sketch=0;fillStyle=solid;size=6;pointerEvents=1;points=[];fillColor=#d5e8d4;resizable=0;rotatable=0;perimeter=centerPerimeter;snapToPoint=1;strokeColor=#82b366;" vertex="1" parent="1">
          <mxGeometry x="820" y="340" width="40" height="40" as="geometry" />
        </mxCell>
        <mxCell id="PRHjL__YodaN7GC-Kpvh-126" value="&lt;font style=&quot;font-size: 14px&quot;&gt;i&lt;/font&gt;" style="text;html=1;strokeColor=none;fillColor=none;align=center;verticalAlign=middle;whiteSpace=wrap;rounded=0;shadow=0;dashed=1;fontFamily=Comic Sans MS;fontSize=12;" vertex="1" parent="1">
          <mxGeometry x="401" y="187.5" width="26" height="25" as="geometry" />
        </mxCell>
        <mxCell id="PRHjL__YodaN7GC-Kpvh-128" value="&lt;font style=&quot;font-size: 14px&quot;&gt;i - 1&lt;/font&gt;" style="text;html=1;strokeColor=none;fillColor=none;align=center;verticalAlign=middle;whiteSpace=wrap;rounded=0;shadow=0;dashed=1;fontFamily=Comic Sans MS;fontSize=12;" vertex="1" parent="1">
          <mxGeometry x="342" y="360" width="33" height="30" as="geometry" />
        </mxCell>
        <mxCell id="PRHjL__YodaN7GC-Kpvh-129" value="山顶" style="text;html=1;strokeColor=none;fillColor=none;align=center;verticalAlign=middle;whiteSpace=wrap;rounded=0;shadow=0;dashed=1;fontFamily=Comic Sans MS;fontSize=14;" vertex="1" parent="1">
          <mxGeometry x="350" y="192.5" width="43" height="20" as="geometry" />
        </mxCell>
        <mxCell id="PRHjL__YodaN7GC-Kpvh-105" value="" style="shape=waypoint;sketch=0;fillStyle=solid;size=6;pointerEvents=1;points=[];fillColor=#d5e8d4;resizable=0;rotatable=0;perimeter=centerPerimeter;snapToPoint=1;strokeColor=#82b366;" vertex="1" parent="1">
          <mxGeometry x="740" y="740" width="40" height="40" as="geometry" />
        </mxCell>
      </root>
    </mxGraphModel>
  </diagram>
</mxfile>
